# xmcd
#
# Track frame offsets: 
#        150
#        14393
#        25746
#        42021
#        56499
#        68500
#        80175
#        91894
#        103334
#        115016
#        126021
#        137449
#        149886
#        159185
#        165476
#        167709
#        179493
#        185331
#        188817
#        197649
#        211741
#        219738
#
# Disc length: 3085 seconds
#
# Revision: 0
# Processed by: cddbd v1.5.2PL0 Copyright (c) Steve Scherf et al.
# Submitted via: ExactAudioCopy v0.99pb5
#
DISCID=300c0b16
DTITLE=Various Artist - Barrelhouse Blues - Disc 3
DYEAR=2010
DGENRE=Blues
TTITLE0=Bo Carter - Times Is Tight Like That
TTITLE1=Jimmy Strange - Quarter Splow Blues
TTITLE2=Joe Pullum - Hard Working Man Blues
TTITLE3=Kid Stormy Weather - Bread And Water Blues
TTITLE4=Smith And Harper - Insurance Policy Blues
TTITLE5=Roosevelt Graves - I'll Be Rested (When The Roll Is Called)
TTITLE6=Mississippi Jook Band - Hittin' The Bottle Stomp
TTITLE7=Little Brother Montgomery - Santa Fe Blues
TTITLE8=Black Boy Shine - Brown House Blues
TTITLE9=Black Ivory King - working For The WPA
TTITLE10=Duskey Daily - Pension Blues
TTITLE11=Three Fifteen And His Squares - Saturday Night On Texas Avenu
TTITLE11=e
TTITLE12=Virgil Childers - Preachers And The Bear
TTITLE13=J A S Spencer - Blow, Boys Blow!
TTITLE14=Will Roseborough - The Dallas Railway
TTITLE15=Ernest Williams - Ain't No More Cane On The Brazos
TTITLE16=John 'Black Sampson' Gibson - Track Lining Song
TTITLE17=Henry Truvillion - Tie Tamping Chant
TTITLE18=Clyde Hill And Convict Group - Long Hot Summer Days
TTITLE19=Moses 'Clear Rock' Platt - Old Rattler
TTITLE20=Smith Casy - Jack O'Diamonds
TTITLE21=Unknown
EXTD=
EXTT0=
EXTT1=
EXTT2=
EXTT3=
EXTT4=
EXTT5=
EXTT6=
EXTT7=
EXTT8=
EXTT9=
EXTT10=
EXTT11=
EXTT12=
EXTT13=
EXTT14=
EXTT15=
EXTT16=
EXTT17=
EXTT18=
EXTT19=
EXTT20=
EXTT21=
PLAYORDER=
